<?xml version="1.0" standalone="no"?>
<!DOCTYPE svg PUBLIC "-//W3C//DTD SVG 20010904//EN"
 "http://www.w3.org/TR/2001/REC-SVG-20010904/DTD/svg10.dtd">
<svg version="1.0" xmlns="http://www.w3.org/2000/svg"
 width="16.000000pt" height="16.000000pt" viewBox="0 0 16.000000 16.000000"
 preserveAspectRatio="xMidYMid meet">
<metadata>
Created by potrace 1.11, written by Peter Selinger 2001-2013
</metadata>
<g transform="translate(0.000000,16.000000) scale(0.006324,-0.006324)"
fill="#000000" stroke="none">
<path d="M1559 2018 c11 -15 11 -18 0 -19 -27 -3 -52 4 -62 16 -5 6 -7 3 -3
-7 3 -10 0 -20 -6 -24 -6 -4 -8 -3 -4 4 3 6 2 13 -4 17 -5 3 -10 1 -10 -5 0
-7 -6 -8 -17 -2 -12 6 -28 4 -48 -5 -16 -8 -21 -12 -10 -10 18 3 20 -1 19 -37
-1 -23 3 -46 8 -53 6 -7 5 -14 -3 -19 -8 -5 -9 -3 -4 7 8 12 6 12 -8 0 -18
-14 -23 -26 -8 -16 12 7 10 -38 -2 -46 -5 -3 -1 -9 8 -12 9 -4 13 -3 10 3 -3
6 -1 10 4 10 14 0 14 -17 0 -26 -8 -5 -8 -9 1 -14 8 -5 7 -12 -5 -24 -9 -9
-15 -16 -13 -17 2 0 11 -2 21 -4 11 -2 22 -7 25 -11 4 -4 -1 -4 -10 -1 -10 4
-18 2 -18 -4 0 -6 -8 -2 -17 10 -14 16 -21 18 -33 10 -13 -9 -12 -10 3 -5 10
3 16 2 13 -3 -8 -12 -56 -11 -56 1 0 5 4 7 8 4 5 -3 9 2 9 11 0 12 -5 11 -19
-7 -16 -20 -23 -19 -19 3 1 5 -3 6 -9 2 -6 -3 -8 -10 -5 -15 3 -5 1 -11 -4
-14 -5 -4 -12 -2 -16 3 -3 6 -13 8 -23 5 -14 -5 -14 -4 -2 4 8 6 18 8 24 5 5
-3 6 -1 2 5 -5 9 -13 9 -29 0 -26 -15 -59 -19 -51 -7 3 5 1 9 -4 9 -6 0 -12
-7 -16 -15 -3 -8 -11 -15 -18 -15 -9 0 -9 3 2 10 12 8 13 12 2 19 -18 11 -62
6 -76 -10 -8 -9 -8 -10 2 -5 20 12 62 14 56 4 -3 -5 -12 -7 -20 -4 -7 3 -27
-6 -43 -19 -18 -16 -36 -23 -48 -19 -14 4 -15 4 -4 -4 16 -12 5 -35 -12 -25
-7 4 -5 -1 3 -12 8 -10 14 -20 13 -22 -2 -1 -1 -3 2 -3 3 1 13 -6 21 -15 20
-20 30 -19 44 3 9 15 10 14 5 -5 -5 -18 -3 -22 9 -17 9 3 14 10 11 14 -3 5 -1
11 4 14 4 3 8 -2 8 -12 0 -42 3 -48 13 -32 8 13 11 13 19 1 7 -11 10 -9 16 8
3 11 11 21 16 21 13 0 11 -13 -3 -30 -11 -12 -10 -12 5 -1 21 16 23 -1 2 -19
-8 -7 -15 -8 -15 -3 0 6 -15 9 -32 8 -45 -4 -45 -4 -28 -16 12 -9 13 -10 0 -7
-16 5 -51 -22 -45 -33 3 -4 -3 -13 -12 -20 -14 -12 -16 -12 -8 1 6 12 5 13 -5
3 -10 -9 -10 -15 4 -28 21 -21 21 -31 -1 -14 -15 13 -16 11 -10 -13 4 -15 3
-30 -3 -33 -5 -3 -7 0 -4 8 3 8 1 18 -4 21 -10 6 -7 -47 4 -67 3 -7 -3 -2 -13
11 -18 21 -19 22 -19 3 0 -11 3 -18 7 -15 4 2 10 -3 13 -12 9 -24 7 -31 -4
-14 -7 11 -10 11 -10 2 0 -7 -4 -10 -10 -7 -6 3 -7 -1 -4 -9 3 -9 11 -13 18
-9 6 4 5 -1 -3 -10 -14 -18 -26 -23 -16 -8 3 5 1 12 -4 15 -4 3 -8 -2 -8 -12
0 -46 -4 -63 -13 -57 -6 3 -7 -1 -4 -10 4 -9 3 -15 -2 -13 -5 2 -9 -1 -9 -7 0
-5 6 -8 14 -7 7 2 10 -1 6 -7 -3 -6 -14 -11 -23 -11 -15 0 -15 -2 -2 -10 12
-8 12 -10 1 -10 -8 0 -11 -3 -8 -7 4 -3 -1 -12 -11 -20 -9 -8 -11 -12 -4 -8 9
5 12 0 10 -19 -2 -14 -7 -28 -11 -32 -3 -4 -4 3 -2 15 2 12 0 19 -5 16 -5 -3
-6 -17 -4 -31 4 -22 2 -25 -13 -20 -9 4 -14 4 -10 0 4 -4 -1 -13 -11 -21 -15
-13 -14 -13 6 -3 13 7 26 9 30 6 3 -3 0 -6 -6 -6 -7 0 -11 -6 -9 -12 1 -7 -4
-12 -10 -11 -7 2 -13 -4 -13 -12 0 -8 -5 -15 -11 -15 -5 0 -8 4 -4 9 3 5 0 13
-6 17 -8 4 -9 3 -5 -4 4 -7 3 -12 -3 -12 -12 0 -24 19 -28 43 -2 12 1 16 9 12
7 -4 5 0 -4 8 -18 14 -25 33 -9 23 5 -3 15 2 22 12 13 15 12 16 -3 4 -11 -9
-18 -10 -23 -2 -3 6 -12 7 -18 3 -8 -5 -8 -2 1 9 10 12 9 18 -3 28 -8 7 -12
16 -10 21 3 4 -3 12 -12 18 -15 8 -15 10 -2 11 8 0 21 -6 29 -13 8 -6 4 0 -9
15 -13 15 -20 32 -16 39 5 8 4 10 -3 5 -8 -5 -12 3 -12 25 0 18 -3 29 -6 26
-7 -6 -44 35 -44 48 0 4 8 -3 18 -16 15 -17 21 -19 27 -9 5 9 4 11 -3 6 -7 -4
-13 -1 -14 6 0 7 -2 18 -2 23 -3 21 -19 36 -32 31 -8 -3 -14 -1 -14 4 0 6 10
10 23 11 l22 0 -22 9 c-12 5 -24 18 -28 29 -3 12 -12 21 -18 21 -8 0 -7 4 2 9
8 5 11 16 8 26 -4 9 -12 13 -18 9 -8 -4 -9 -3 -5 5 4 6 11 9 16 6 5 -3 12 0
16 6 4 8 3 9 -4 5 -8 -5 -11 1 -9 16 1 18 -2 22 -17 20 -17 -3 -18 -1 -7 11
10 13 9 15 -8 10 -12 -3 -18 -9 -15 -14 9 -16 -3 -10 -17 8 -12 14 -12 16 0 8
10 -6 12 -4 7 4 -6 9 -13 8 -27 -5 -10 -9 -19 -13 -19 -9 0 5 -7 0 -16 -11
-15 -18 -15 -18 -5 3 8 16 7 22 -4 26 -9 4 -12 1 -9 -7 3 -8 0 -17 -5 -21 -6
-3 -8 -11 -5 -17 4 -6 3 -8 -3 -5 -6 4 -19 0 -29 -9 -18 -14 -18 -15 6 -8 22
6 23 5 11 -10 -9 -11 -10 -16 -2 -16 7 0 9 -5 5 -12 -6 -10 -4 -10 8 0 13 10
17 10 22 -3 3 -9 2 -13 -3 -10 -5 3 -12 1 -16 -5 -5 -9 15 -15 38 -11 4 0 7
-4 7 -10 0 -6 -7 -9 -15 -6 -21 9 -27 -9 -8 -24 14 -12 16 -12 8 1 -4 8 -4 12
0 7 11 -10 13 -97 3 -90 -5 2 -5 9 -2 15 4 7 2 8 -4 4 -9 -5 -9 -13 0 -29 10
-21 10 -21 -7 -7 -17 14 -17 14 -7 -6 9 -17 9 -24 -2 -33 -7 -6 -16 -8 -20 -4
-4 4 -3 -4 3 -19 8 -22 7 -26 -3 -22 -8 3 -17 0 -22 -7 -4 -7 -3 -10 3 -6 6 4
13 0 16 -8 4 -10 1 -12 -10 -8 -13 5 -14 3 -3 -17 7 -12 8 -20 2 -16 -18 11
-35 -44 -17 -56 6 -5 6 -8 -2 -8 -7 0 -17 8 -22 18 -14 23 -14 6 -1 -19 8 -14
7 -19 -1 -19 -8 0 -7 -5 2 -17 8 -9 9 -14 4 -11 -6 4 -19 -1 -30 -9 -19 -15
-19 -15 5 -9 24 7 25 7 5 -9 -11 -9 -19 -21 -17 -26 3 -11 -36 8 -54 25 -6 6
-9 17 -6 25 3 8 0 11 -7 7 -7 -5 -9 -1 -5 8 3 9 11 13 18 9 6 -3 4 2 -5 13 -9
10 -15 31 -14 46 1 15 -2 25 -7 22 -4 -3 -6 -10 -3 -15 4 -5 -1 -9 -10 -9 -12
0 -14 4 -5 19 15 30 12 48 -5 25 -14 -18 -14 -17 -5 8 8 23 6 32 -13 50 -23
24 -28 53 -13 76 7 12 4 12 -14 2 -20 -11 -21 -10 -9 12 l12 23 -24 -20 c-13
-11 -18 -13 -11 -5 14 16 16 60 3 60 -13 0 -20 35 -9 54 7 12 5 16 -7 16 -10
0 -13 -5 -9 -12 4 -7 3 -8 -4 -4 -9 5 -9 12 0 26 7 10 16 16 22 13 5 -4 6 -1
1 6 -5 9 -10 10 -18 2 -14 -14 -27 -14 -27 0 0 5 4 7 10 4 5 -3 10 -2 10 4 0
5 -8 15 -17 20 -24 14 -8 14 20 0 l22 -10 -22 19 c-12 11 -19 22 -16 26 4 3 1
6 -5 6 -7 0 -12 -6 -12 -12 0 -9 -3 -8 -10 2 -5 8 -17 15 -27 15 -10 0 -24 4
-30 8 -8 5 -13 3 -13 -5 0 -9 -3 -9 -10 2 -5 8 -10 11 -10 6 0 -5 -7 -3 -15 4
-8 7 -15 9 -15 4 0 -5 -4 -4 -8 1 -4 6 -19 -2 -37 -19 -17 -16 -25 -26 -18
-23 14 9 43 -2 43 -15 0 -5 -6 -6 -12 -2 -7 5 -1 -8 14 -28 15 -19 24 -39 20
-43 -4 -5 -1 -5 6 -1 9 6 7 14 -8 37 -12 16 -17 29 -11 29 5 0 13 -9 16 -20 4
-12 11 -17 18 -14 7 4 9 4 5 -1 -4 -4 -2 -15 5 -23 6 -9 7 -13 2 -10 -6 4 -17
-3 -24 -15 -11 -18 -11 -20 0 -9 18 16 29 15 29 -4 0 -8 -4 -13 -9 -9 -5 3
-12 1 -16 -4 -3 -6 6 -8 21 -5 24 4 26 3 14 -11 -8 -10 -9 -15 -1 -15 6 0 11
-9 11 -19 0 -11 6 -21 13 -24 9 -3 8 -8 -3 -22 -12 -15 -12 -17 -1 -10 11 6
13 4 8 -8 -4 -12 -2 -14 11 -10 13 5 14 3 5 -7 -8 -9 -7 -16 5 -31 8 -10 20
-15 25 -12 6 3 7 1 3 -6 -4 -6 -12 -9 -17 -6 -16 11 -10 -7 8 -22 10 -8 13
-12 7 -9 -7 3 -14 0 -17 -8 -4 -10 0 -12 15 -8 16 4 19 2 12 -9 -12 -21 -15
-49 -5 -49 6 0 8 9 6 19 -3 14 1 18 12 14 12 -5 12 -7 1 -14 -7 -5 -9 -9 -4
-9 5 0 4 -6 -2 -13 -8 -9 -8 -17 0 -27 8 -12 9 -12 4 3 -3 11 -2 16 4 12 6 -3
10 -15 10 -26 0 -10 5 -19 12 -19 6 0 8 -3 5 -7 -4 -3 0 -17 9 -31 8 -13 13
-26 10 -29 -3 -3 -8 2 -12 11 -8 20 -21 21 -21 1 0 -8 2 -13 5 -11 10 10 30
-19 21 -31 -7 -7 -6 -14 2 -19 7 -4 9 -3 6 3 -4 6 0 14 9 17 8 3 12 2 9 -3 -3
-5 -1 -12 4 -15 6 -4 6 -18 1 -37 -8 -27 -7 -29 6 -18 14 11 16 9 13 -16 -2
-17 -8 -33 -12 -36 -5 -3 -2 -9 6 -12 12 -4 15 0 12 15 -3 11 -1 17 3 14 7 -7
8 -11 11 -37 0 -5 6 -7 13 -3 7 4 8 3 4 -5 -4 -6 -12 -9 -17 -6 -5 3 -6 -1 -3
-9 3 -8 12 -17 19 -20 8 -3 11 -13 8 -24 -2 -11 0 -29 6 -41 9 -16 9 -21 -1
-21 -8 0 -6 -5 4 -11 11 -6 15 -16 11 -27 -5 -14 -2 -13 11 3 10 11 15 14 11
8 -3 -7 -1 -21 5 -30 10 -16 10 -16 5 3 -3 13 0 21 7 22 41 3 73 18 40 19 -9
0 -23 -5 -31 -11 -12 -9 -12 -8 -1 11 8 12 18 19 22 17 4 -3 8 4 8 15 0 34 0
35 23 60 12 13 16 21 8 16 -9 -5 -12 -3 -9 6 3 8 10 14 15 14 6 0 15 4 20 9 4
5 3 7 -2 3 -6 -3 -17 -2 -25 4 -11 6 -12 9 -2 9 7 0 11 4 7 9 -3 5 -1 12 5 16
6 4 8 11 5 16 -4 5 4 9 17 9 14 0 18 3 11 8 -15 9 -11 38 7 55 10 10 11 9 5
-3 -8 -13 -7 -13 8 -1 16 13 16 15 1 40 -9 14 -13 23 -9 19 10 -9 38 19 30 31
-3 5 0 13 6 17 8 5 9 3 4 -7 -5 -8 -4 -10 0 -6 16 14 15 39 -1 33 -9 -3 -12
-1 -9 4 3 6 12 10 19 10 8 0 12 10 11 25 -2 14 1 23 7 19 5 -3 8 2 6 12 -2 14
3 19 20 18 12 -1 22 3 22 7 0 5 5 9 11 9 5 0 7 -4 4 -10 -3 -5 -1 -19 6 -31 8
-15 8 -19 0 -15 -6 4 -11 2 -11 -3 0 -6 5 -11 11 -11 5 0 8 -4 4 -9 -3 -5 0
-13 6 -17 7 -4 9 -3 5 4 -3 6 -1 14 5 18 7 4 9 3 5 -4 -3 -6 -2 -13 3 -17 6
-3 8 -12 5 -19 -3 -8 0 -17 5 -21 6 -3 9 -11 6 -16 -4 -5 -1 -9 4 -9 6 0 11
-5 11 -11 0 -5 -4 -8 -8 -5 -5 3 -9 -1 -9 -9 0 -8 4 -12 9 -9 4 3 7 -5 5 -18
-1 -16 3 -23 14 -22 9 1 16 -5 16 -12 0 -7 -4 -11 -9 -8 -4 3 -5 -2 -2 -11 4
-10 13 -14 22 -10 9 3 13 3 9 -1 -4 -4 -2 -13 4 -21 9 -10 6 -13 -12 -13 l-24
-1 25 -14 c15 -9 19 -14 10 -15 -9 0 -11 -3 -5 -8 6 -4 16 -15 24 -24 11 -15
11 -21 0 -35 -12 -15 -12 -16 3 -11 10 4 19 1 22 -8 3 -9 1 -12 -4 -9 -6 3
-10 1 -10 -4 0 -6 5 -11 11 -11 8 0 8 -4 1 -13 -7 -8 -6 -18 4 -31 7 -10 11
-23 8 -27 -3 -5 0 -9 6 -9 6 0 8 -5 4 -12 -4 -7 -3 -8 4 -4 9 5 9 13 0 29 -10
19 -9 20 4 10 11 -10 17 -10 28 0 12 10 12 9 2 -4 -10 -13 -9 -19 5 -30 16
-13 17 -12 4 4 -9 12 -10 17 -2 17 8 0 11 11 8 29 -4 21 -1 28 10 27 9 0 17 7
18 17 2 9 -1 17 -6 17 -4 0 -6 7 -3 15 4 8 10 12 15 9 5 -3 8 5 6 18 -1 13 3
22 9 21 6 -1 11 4 11 12 0 8 -4 12 -9 9 -4 -3 -8 0 -8 5 0 6 8 11 18 12 10 0
12 3 4 6 -6 2 -9 9 -6 14 4 6 10 6 18 0 10 -8 13 -5 12 12 -1 12 -6 28 -10 36
-7 10 -6 12 4 6 10 -6 12 -4 7 8 -4 11 -1 17 8 17 8 0 15 5 15 11 0 5 -6 7
-12 3 -10 -6 -10 -4 0 7 15 16 16 33 0 23 -7 -4 -8 -3 -4 5 4 6 10 9 14 7 4
-2 16 3 27 11 20 15 19 15 -3 8 -21 -6 -22 -5 -10 20 6 14 17 24 23 21 7 -2
10 6 7 26 -3 21 -1 29 7 24 6 -4 11 -2 11 3 0 6 -6 11 -12 11 -8 0 -4 8 7 17
16 13 17 15 3 10 -10 -4 -18 -2 -18 3 0 6 10 10 23 10 12 0 18 4 12 8 -5 4
-11 13 -13 21 -3 12 0 12 12 1 19 -15 20 -7 4 23 -11 21 -10 21 7 7 10 -8 16
-9 11 -3 -4 7 -1 32 5 55 7 24 12 47 11 51 -2 5 1 6 6 3 4 -2 14 5 22 17 12
20 12 21 -3 9 -12 -10 -17 -10 -23 -1 -4 8 -3 9 4 5 7 -4 12 -1 12 8 0 10 6
13 16 9 14 -5 15 -3 4 18 l-13 24 24 -20 c13 -11 18 -13 12 -4 -17 22 -14 91
3 75 8 -7 9 -15 3 -23 -7 -7 -5 -14 3 -19 7 -4 10 -4 6 1 -4 4 -3 14 3 21 7 8
7 14 -1 19 -16 10 -12 28 6 21 14 -5 15 -4 4 9 -11 13 -10 15 2 10 10 -4 14 2
14 20 0 16 -5 24 -12 21 -8 -3 -11 1 -8 8 3 8 15 12 27 10 15 -3 17 -2 7 3 -8
5 -16 19 -18 32 -2 18 1 21 11 13 17 -14 42 1 34 21 -4 11 -1 14 9 10 9 -3 13
-13 9 -27 -5 -20 -5 -20 8 2 13 22 28 21 23 -1 -2 -7 -1 -9 1 -4 3 4 9 5 14 2
5 -4 6 1 3 9 -3 9 -1 16 5 16 6 0 11 -5 11 -11 0 -8 6 -7 16 2 15 12 16 11 11
-11 -6 -21 -4 -20 9 5 12 23 14 25 10 7 -2 -13 2 -35 10 -50 8 -15 14 -21 14
-13 0 8 3 11 6 8 4 -4 1 -13 -6 -22 -9 -11 -9 -15 -1 -15 7 0 9 -5 6 -10 -4
-6 -10 -8 -14 -6 -4 3 -8 -1 -8 -9 0 -8 4 -12 9 -9 4 3 8 1 8 -5 0 -5 -4 -12
-10 -16 -5 -3 -6 -13 -3 -22 5 -12 3 -14 -7 -8 -9 5 -11 4 -6 -4 6 -9 11 -9
22 0 9 7 14 8 14 1 0 -6 -5 -14 -10 -17 -8 -5 -8 -11 0 -20 8 -10 8 -15 -1
-21 -7 -4 -9 -3 -6 3 3 5 0 10 -7 10 -7 0 -13 -6 -13 -13 0 -7 3 -13 6 -12 20
2 31 -3 26 -12 -4 -6 -11 -8 -16 -5 -5 3 -6 -1 -3 -9 3 -9 11 -13 18 -9 8 5 8
3 0 -8 -15 -18 -25 -61 -13 -53 5 3 9 -2 9 -11 0 -9 -4 -13 -10 -10 -6 3 -7
-1 -4 -9 3 -9 11 -13 18 -9 6 4 5 -1 -3 -10 -7 -9 -18 -14 -24 -10 -6 3 -7 1
-3 -5 4 -6 12 -9 19 -6 8 3 13 -5 14 -18 2 -18 0 -19 -7 -8 -8 13 -11 13 -22
1 -10 -10 -10 -12 0 -7 7 4 12 1 12 -8 0 -9 5 -16 11 -16 5 0 7 -5 4 -10 -4
-6 -11 -8 -16 -5 -5 3 -6 -1 -3 -9 3 -9 11 -13 18 -10 6 3 0 -4 -14 -17 l-25
-22 25 8 c20 6 23 5 13 -6 -14 -14 -18 -33 -5 -25 4 2 8 -4 8 -14 0 -15 -3
-17 -15 -7 -12 9 -12 6 2 -15 12 -19 14 -29 5 -34 -6 -4 -8 -3 -5 3 3 5 0 10
-7 10 -7 0 -13 -6 -13 -13 0 -7 3 -13 6 -12 20 2 31 -3 26 -12 -4 -6 -12 -8
-18 -4 -7 3 -4 -1 5 -9 17 -13 16 -15 -5 -25 -12 -6 -16 -11 -9 -11 7 -1 10
-6 6 -13 -4 -7 -3 -8 5 -4 6 4 8 12 5 18 -4 7 -2 8 4 4 12 -7 -3 -53 -23 -69
-5 -5 1 -5 15 -2 20 6 23 5 13 -6 -15 -15 -17 -33 -3 -24 6 3 7 -1 4 -9 -3 -9
-11 -13 -17 -9 -6 4 -7 1 -2 -7 4 -7 2 -16 -6 -22 -10 -7 -8 -8 8 -3 15 4 21
2 19 -9 -1 -9 -5 -19 -9 -22 -4 -4 -2 -13 5 -21 8 -10 8 -12 -4 -8 -9 4 -18
-1 -22 -10 -3 -9 -2 -14 3 -11 5 3 12 -1 15 -10 8 -21 8 -24 -5 -24 -5 0 -8 4
-5 8 2 4 -4 9 -15 9 -10 1 -19 -2 -19 -8 0 -5 3 -8 8 -8 19 3 22 -3 12 -21 -6
-11 -7 -20 -1 -20 5 0 11 7 15 15 3 8 10 15 16 15 5 0 10 -7 10 -15 0 -18 16
-20 24 -2 3 6 3 1 -1 -13 -5 -22 -4 -23 11 -11 9 7 16 10 16 5 0 -5 5 -2 10 6
7 11 10 11 10 2 0 -10 5 -10 20 -2 16 8 22 8 26 -4 3 -8 12 -17 20 -20 12 -5
12 -2 3 15 -9 17 -8 20 2 13 31 -19 46 -11 42 20 -7 65 -9 75 -16 82 -3 4 -4
-4 -2 -16 2 -12 1 -19 -3 -16 -14 14 -8 91 8 98 12 5 12 7 -2 7 -10 1 -18 6
-18 12 0 5 5 7 11 3 8 -5 8 -1 0 14 -6 10 -8 30 -6 42 3 13 -1 30 -8 38 -10
13 -8 14 13 8 22 -6 22 -5 7 4 -18 11 -18 12 0 26 13 11 14 14 3 12 -11 -2
-15 6 -15 27 0 17 -4 36 -9 44 -7 11 -5 13 7 8 9 -3 19 -2 22 4 4 5 3 9 -2 8
-22 -4 -25 2 -7 16 13 11 14 14 4 13 -11 -2 -15 6 -15 27 0 17 -4 36 -9 44 -7
11 -5 13 7 8 9 -3 19 -2 22 4 4 5 3 9 -2 8 -22 -4 -25 2 -7 16 10 9 13 14 5
13 -7 -2 -16 3 -19 11 -2 8 0 11 5 8 5 -3 10 0 10 8 0 8 -3 12 -6 11 -3 -2 -6
13 -6 34 0 21 3 36 7 34 4 -2 10 0 13 6 4 6 1 9 -7 8 -8 -2 -13 7 -13 27 0 17
-4 36 -9 44 -7 11 -5 13 7 8 9 -3 19 -2 22 4 4 5 3 9 -2 8 -22 -4 -25 2 -7 16
10 9 13 14 5 13 -7 -2 -16 3 -19 11 -3 8 0 11 6 7 15 -9 7 31 -10 52 -11 13
-11 14 0 8 11 -6 12 -1 9 23 -3 17 -1 31 4 31 5 0 9 5 9 11 0 5 -4 7 -10 4 -6
-4 -7 1 -3 11 5 13 3 15 -7 9 -8 -5 -11 -4 -6 3 4 6 14 8 23 5 10 -4 14 -2 9
5 -3 6 -1 14 5 18 8 4 9 3 5 -4 -7 -11 6 -17 28 -13 4 1 14 -4 22 -10 12 -9
13 -9 9 4 -4 8 -1 18 6 23 8 4 10 3 5 -4 -4 -7 -1 -12 6 -13 7 -1 24 -3 38 -5
64 -10 86 -10 103 -2 10 5 14 14 11 20 -4 7 -3 8 4 4 6 -4 9 -12 6 -19 -3 -8
4 -13 20 -13 14 0 22 4 20 8 -3 4 0 8 5 8 6 0 11 -4 11 -9 0 -5 7 -11 14 -14
10 -4 13 -1 10 7 -3 7 2 13 11 14 8 1 22 3 30 4 8 1 15 6 15 11 0 5 -10 7 -22
4 -22 -6 -22 -6 2 13 14 10 21 22 17 26 -4 4 -7 1 -7 -7 0 -8 -6 -4 -16 9 -8
12 -13 26 -10 31 3 5 -1 14 -9 21 -8 7 -12 17 -8 23 3 6 1 7 -6 3 -6 -4 -9
-12 -6 -17 4 -5 2 -9 -3 -9 -5 0 -14 10 -20 23 -8 17 -11 18 -11 5 -1 -9 -5
-20 -11 -23 -5 -3 -7 0 -5 7 4 10 -5 14 -30 15 -19 0 -32 -3 -29 -8 3 -5 0 -9
-5 -9 -6 0 -11 5 -11 10 0 6 -5 10 -11 10 -5 0 -8 -4 -4 -9 3 -5 0 -13 -6 -17
-8 -4 -9 -3 -5 4 9 15 -26 33 -45 21 -20 -12 -32 -11 -23 3 4 7 3 8 -5 4 -6
-4 -9 -11 -6 -16 3 -5 1 -12 -5 -15 -6 -4 -9 -1 -8 6 2 6 -3 14 -10 16 -8 3
-10 -1 -6 -11 3 -9 1 -16 -6 -16 -6 0 -9 3 -6 8 2 4 -1 15 -8 24 -12 16 -14
16 -26 -7 -12 -23 -30 -25 -30 -4 0 6 5 7 10 4 6 -3 10 -1 10 4 0 6 -4 11 -9
11 -5 0 -12 7 -15 16 -5 12 -2 15 10 10 14 -5 15 -4 4 9 -15 18 -20 85 -7 102
4 6 4 14 -2 17 -12 8 20 45 32 38 5 -2 3 5 -5 17 -7 12 -17 21 -22 21 -4 0 -3
-7 4 -15 9 -11 9 -15 1 -15 -7 0 -9 -5 -5 -12 4 -6 3 -8 -3 -5 -6 4 -9 18 -7
33 2 20 -1 24 -13 20 -13 -5 -13 -4 -4 7 9 11 7 17 -6 28 -16 13 -17 12 -4 -3z
m-116 -43 c-7 -21 -12 -19 -10 4 0 11 5 18 9 15 4 -3 5 -11 1 -19z m-13 -125
c0 -5 -5 -10 -11 -10 -5 0 -7 5 -4 10 3 6 8 10 11 10 2 0 4 -4 4 -10z m207
-132 c-3 -8 -6 -5 -6 6 -1 11 2 17 5 13 3 -3 4 -12 1 -19z m117 13 c3 -5 -1
-14 -8 -20 -12 -10 -14 -9 -11 6 2 10 4 19 4 21 2 5 10 2 15 -7z m-231 -14 c4
3 7 1 7 -6 0 -8 -6 -11 -16 -7 -9 3 -12 2 -9 -5 4 -5 15 -7 26 -4 15 5 18 3
13 -12 -5 -15 -4 -15 4 -3 8 10 8 18 0 27 -8 11 -7 12 6 7 11 -4 16 -14 13
-25 -3 -11 0 -22 5 -26 7 -3 8 -1 4 5 -4 7 -2 12 4 12 7 0 10 -6 7 -12 -2 -7
-11 -12 -20 -10 -11 2 -15 -2 -11 -12 3 -8 12 -12 20 -9 8 3 14 0 14 -5 0 -6
-9 -9 -19 -7 -11 2 -25 -3 -32 -11 -6 -8 -16 -14 -21 -14 -6 0 0 8 12 18 21
17 21 18 4 32 -17 14 -18 13 -6 -2 9 -12 10 -18 2 -23 -6 -4 -14 -4 -17 -1 -3
3 -12 -2 -20 -12 -11 -14 -12 -15 -7 -1 4 14 0 16 -27 10 -18 -4 -35 -13 -37
-20 -3 -10 0 -11 9 -5 12 7 12 5 0 -9 -17 -21 -34 -12 -22 11 4 9 6 24 4 32
-4 12 -3 12 5 2 7 -11 12 -10 26 3 20 20 21 32 2 16 -10 -9 -15 -8 -20 4 -3 8
-1 15 5 15 6 0 7 5 4 10 -3 6 0 10 7 10 10 0 9 3 -2 11 -12 8 -10 9 9 4 15 -5
21 -3 17 3 -4 6 2 8 16 4 16 -4 19 -2 13 9 -7 11 -6 12 7 2 8 -7 18 -10 21 -6z
m332 3 c-3 -5 -12 -10 -18 -10 -7 0 -6 4 3 10 19 12 23 12 15 0z m-798 -74 c0
-8 -6 -12 -14 -9 -7 3 -10 9 -7 14 8 14 21 11 21 -5z m115 -35 c-5 -14 -3 -14
11 -3 9 8 21 11 26 8 5 -4 12 -2 16 4 3 5 12 10 18 10 7 0 6 -4 -3 -10 -13 -8
-12 -10 3 -10 10 0 15 -5 12 -10 -4 -6 -12 -7 -18 -3 -22 14 -42 12 -54 -4 -9
-12 -13 -13 -13 -4 0 11 -3 11 -17 0 -15 -13 -15 -12 -5 7 6 12 9 23 7 26 -3
3 1 5 9 5 9 0 12 -6 8 -16z m654 -9 c-6 -10 -62 -9 -73 1 -3 4 11 5 31 3 31
-3 36 -1 31 13 -5 12 -3 13 6 4 6 -6 9 -16 5 -21z m-1755 -71 c-3 -18 -6 -21
-9 -9 -2 11 -9 15 -20 11 -14 -6 -15 -5 -2 8 22 24 37 19 31 -10z m602 -12
c-8 -8 -13 -7 -18 2 -5 8 -4 10 3 5 7 -4 12 -2 12 5 0 7 3 9 7 6 4 -4 2 -12
-4 -18z m-348 -319 c3 -5 1 -10 -4 -10 -6 0 -11 5 -11 10 0 6 2 10 4 10 3 0 8
-4 11 -10z m425 -264 c0 -3 -4 -8 -10 -11 -5 -3 -10 -1 -10 4 0 6 5 11 10 11
6 0 10 -2 10 -4z m227 -70 c0 -8 -6 -12 -15 -9 -11 5 -11 7 0 14 7 5 13 9 14
9 0 0 1 -6 1 -14z m-571 -198 c4 -7 3 -8 -4 -4 -7 4 -12 2 -12 -4 0 -6 -5 -8
-11 -4 -8 4 -7 9 2 15 18 11 17 11 25 -3z m1190 -56 c-10 -10 -16 -12 -16 -4
0 7 5 12 12 12 9 0 9 3 0 12 -7 7 -12 16 -12 21 0 5 7 1 16 -8 16 -15 16 -18
0 -33z"/>
<path d="M1595 2000 c-3 -5 -1 -10 4 -10 6 0 11 5 11 10 0 6 -2 10 -4 10 -3 0
-8 -4 -11 -10z"/>
<path d="M1376 1944 c-6 -15 -4 -15 11 -3 10 7 20 15 22 16 2 2 -3 3 -11 3 -9
0 -19 -7 -22 -16z"/>
<path d="M1394 1916 c1 -8 5 -18 8 -22 4 -3 5 1 4 10 -1 8 -5 18 -8 22 -4 3
-5 -1 -4 -10z"/>
<path d="M1374 1772 c4 -3 14 -7 22 -8 9 -1 13 0 10 4 -4 3 -14 7 -22 8 -9 1
-13 0 -10 -4z"/>
<path d="M1056 1731 c-4 -6 -1 -11 6 -11 10 0 9 -3 -2 -10 -8 -5 -12 -12 -9
-15 11 -10 28 20 20 34 -6 9 -11 10 -15 2z"/>
<path d="M1967 1691 c-4 -17 -3 -21 5 -13 5 5 8 16 6 23 -3 8 -7 3 -11 -10z"/>
<path d="M70 1589 c0 -5 5 -7 10 -4 6 3 10 8 10 11 0 2 -4 4 -10 4 -5 0 -10
-5 -10 -11z"/>
<path d="M1040 1590 c11 -7 11 -10 2 -10 -7 0 -10 -5 -6 -11 4 -8 9 -7 15 2 6
10 12 9 29 -6 19 -17 19 -20 5 -25 -9 -3 -16 -10 -15 -14 1 -5 -4 -12 -10 -16
-8 -5 -6 -9 6 -14 10 -4 15 -4 11 0 -4 4 7 23 25 41 17 18 29 34 25 34 -4 1
-15 2 -24 3 -10 1 -28 7 -40 14 -26 14 -45 16 -23 2z m80 -26 c0 -8 -19 -13
-24 -6 -3 5 1 9 9 9 8 0 15 -2 15 -3z"/>
<path d="M2193 1584 c3 -13 -1 -21 -9 -21 -7 0 -11 4 -9 8 3 4 -2 9 -10 13
-10 3 -15 -1 -15 -12 0 -14 -2 -14 -9 -3 -8 13 -12 13 -27 0 -16 -12 -17 -12
-11 4 3 9 2 17 -3 17 -9 0 -15 -22 -11 -43 1 -5 -13 1 -30 14 l-31 22 11 -21
c14 -26 4 -29 -15 -4 -12 16 -13 15 -10 -4 3 -13 -1 -21 -9 -21 -8 0 -13 5
-12 10 1 5 -5 12 -13 14 -9 3 -11 1 -5 -4 20 -16 13 -39 -13 -38 -14 0 -27 -7
-30 -15 -4 -12 -2 -13 9 -2 7 6 18 12 23 12 6 0 0 -7 -12 -16 -12 -8 -27 -12
-34 -8 -7 4 -8 3 -4 -4 4 -7 2 -12 -5 -12 -9 0 -9 -3 0 -14 8 -10 9 -16 1 -21
-5 -3 -10 -3 -10 1 0 4 -9 -1 -20 -11 -11 -10 -20 -23 -20 -29 0 -6 5 -3 11 7
20 34 27 18 20 -45 -1 -5 -6 -8 -12 -8 -8 0 -8 5 1 15 7 9 8 15 2 15 -16 0
-24 -33 -10 -41 6 -4 15 -6 18 -4 3 2 6 -16 6 -40 -1 -24 -4 -41 -8 -39 -3 2
-5 18 -3 34 2 16 0 32 -4 35 -5 3 -8 -13 -7 -36 2 -40 21 -64 40 -52 5 3 6 1
2 -5 -4 -7 -3 -12 2 -12 6 0 13 -7 16 -16 6 -15 3 -14 -21 1 l-28 18 19 -21
c11 -12 27 -22 38 -22 20 0 23 -11 8 -26 -6 -6 -2 -10 12 -11 18 -2 20 0 8 7
-13 8 -12 10 3 10 9 0 17 -7 17 -16 0 -10 5 -14 16 -10 9 3 12 2 9 -5 -4 -6 1
-9 11 -7 13 2 20 -4 22 -20 3 -22 4 -23 18 -5 10 13 13 14 9 2 -6 -15 -3 -17
44 -21 11 -1 18 -5 15 -9 -2 -4 10 -12 26 -18 27 -9 35 -20 31 -44 -1 -5 3 -6
9 -2 6 3 8 10 6 14 -3 4 1 8 9 8 8 0 12 -4 9 -8 -2 -5 9 -15 26 -24 16 -8 30
-18 30 -21 0 -3 -5 -2 -12 2 -7 5 -8 3 -3 -6 6 -10 11 -9 23 6 13 16 14 17 9
2 -4 -10 -2 -18 4 -18 6 0 7 -4 4 -10 -3 -5 1 -10 9 -10 9 0 17 -3 17 -7 7
-42 5 -51 -10 -46 -13 4 -13 3 -2 -5 10 -7 11 -14 1 -32 -6 -12 -9 -28 -6 -35
3 -9 -1 -12 -15 -10 -16 3 -17 1 -9 -15 8 -16 8 -18 -5 -14 -8 4 -15 1 -15 -5
0 -6 -3 -10 -7 -10 -5 1 -10 0 -13 -1 -3 -1 -14 -3 -25 -5 -11 -2 -21 -9 -23
-14 -2 -6 -14 1 -28 16 -13 14 -24 21 -24 15 0 -6 5 -14 10 -17 6 -3 10 -10
10 -15 0 -10 -19 -8 -37 3 -13 8 -17 2 -13 -18 1 -5 -7 -2 -17 8 -11 9 -29 15
-42 12 -19 -3 -21 -1 -15 18 6 21 5 21 -14 -3 -12 -14 -21 -20 -22 -15 0 6 6
17 13 24 10 10 9 12 -3 9 -8 -2 -21 -10 -27 -18 -12 -13 -12 -13 -8 0 3 9 -4
21 -16 29 -20 12 -21 11 -15 -6 6 -14 5 -15 -5 -6 -9 9 -17 9 -33 1 l-21 -11
20 23 20 23 -32 -23 c-33 -24 -42 -40 -22 -40 5 0 7 4 4 10 -3 6 1 7 10 4 14
-6 14 -8 -2 -21 -10 -8 -12 -12 -5 -8 6 3 12 1 12 -4 0 -6 -7 -11 -17 -11 -9
0 -13 -3 -9 -7 4 -5 13 -8 19 -8 7 0 13 -9 14 -20 l3 -20 -10 20 c-10 19 -10
18 -6 -3 3 -16 1 -22 -8 -19 -7 3 -13 -1 -13 -9 0 -7 4 -11 9 -8 4 3 18 -2 30
-10 12 -9 27 -16 33 -16 5 0 3 5 -5 10 -11 8 -7 9 14 4 23 -6 27 -4 21 7 -7
11 -6 12 6 2 16 -13 36 -12 59 2 13 8 13 7 1 -8 -16 -20 -2 -23 18 -5 12 11
13 9 7 -7 -6 -15 -4 -17 5 -8 14 14 42 6 32 -10 -3 -6 -1 -7 6 -3 8 5 9 12 2
19 -7 9 -1 12 20 12 22 1 28 -3 24 -13 -4 -12 -2 -12 8 -4 10 9 17 8 26 -1 11
-10 11 -8 2 10 -10 19 -9 22 3 17 9 -3 18 -14 21 -25 6 -17 8 -17 21 -4 9 8
20 15 25 15 6 0 7 5 3 11 -4 7 1 7 16 -1 20 -11 22 -10 17 4 -4 9 -2 16 3 16
6 0 10 -4 10 -10 0 -5 5 -10 11 -10 5 0 7 5 4 10 -3 6 2 10 12 10 10 0 24 9
31 21 11 16 16 18 28 9 11 -10 14 -9 15 6 1 11 1 23 0 27 -1 5 3 6 8 3 5 -4
13 -1 16 5 4 5 14 8 22 4 13 -4 14 -3 3 10 -7 8 -9 15 -4 15 5 0 18 13 29 29
15 23 22 27 33 19 10 -9 12 -8 10 3 -2 8 -7 17 -13 21 -6 5 -5 8 3 8 20 0 13
100 -7 101 -14 0 -14 1 -1 7 19 9 22 38 4 40 -8 1 -21 3 -28 4 -11 1 -12 6 -5
20 5 10 7 19 4 19 -3 1 -9 3 -15 4 -5 1 -16 3 -24 4 -8 0 -18 10 -21 22 -4 11
-9 18 -12 15 -8 -8 -34 14 -28 24 3 4 -2 13 -10 20 -13 11 -15 10 -9 -6 5 -18
5 -18 -9 -2 -8 10 -17 15 -20 11 -6 -6 -11 12 -8 30 0 4 -5 6 -11 5 -7 -2 -12
3 -10 10 1 8 -2 11 -8 7 -8 -5 -7 -11 1 -21 8 -10 8 -14 0 -14 -6 0 -11 4 -11
10 0 5 -8 6 -17 3 -17 -7 -17 -6 0 11 18 19 23 31 8 21 -5 -3 -12 -1 -16 5 -4
7 -12 7 -25 0 -26 -14 -35 -13 -21 3 16 20 3 27 -27 16 -25 -10 -25 -9 -9 9
14 15 14 19 2 19 -8 0 -12 -4 -9 -9 3 -4 -2 -8 -11 -8 -11 0 -15 5 -12 14 4
10 1 13 -7 10 -7 -3 -27 9 -44 25 -17 17 -38 31 -47 31 -14 0 -15 3 -6 14 10
12 8 14 -11 9 -17 -3 -20 -2 -9 5 8 6 16 21 18 34 2 17 1 19 -6 8 -5 -8 -8
-17 -6 -20 2 -4 -2 -7 -9 -7 -7 0 -13 6 -13 13 0 7 4 11 9 8 4 -3 8 2 8 10 0
9 6 16 14 16 8 0 13 8 12 17 0 9 9 22 21 28 13 7 20 16 15 21 -4 4 2 2 12 -6
18 -14 19 -13 13 2 -3 10 -1 20 5 24 6 4 8 3 5 -3 -4 -6 2 -13 13 -16 12 -3
18 -1 14 5 -4 6 2 8 16 3 15 -5 25 -2 31 6 7 12 9 12 9 0 0 -11 3 -11 17 0 14
12 16 12 8 0 -6 -11 -1 -13 24 -9 34 5 38 0 19 -22 -11 -12 -10 -12 3 -2 12 9
18 9 28 -1 11 -10 11 -8 2 11 -11 21 -11 22 8 10 11 -6 17 -16 14 -22 -4 -5 1
-7 10 -3 10 3 17 2 17 -3 0 -6 6 -9 13 -7 6 1 11 -4 9 -11 -1 -8 2 -11 8 -7 6
3 7 11 4 17 -5 8 -1 9 12 4 10 -4 15 -4 11 0 -4 5 3 14 15 22 13 7 15 11 6 8
-10 -3 -18 -1 -18 4 0 5 8 11 18 13 16 4 16 5 0 6 -10 0 -18 6 -18 12 0 5 4 7
10 4 6 -3 7 1 4 9 -4 10 -1 16 7 16 21 0 1 13 -24 15 -12 1 -23 8 -23 16 -1 8
-2 20 -3 28 -1 11 -5 10 -17 -5 -8 -10 -13 -14 -10 -7 4 6 2 14 -4 18 -9 6
-14 -8 -11 -28 1 -5 -3 -6 -9 -2 -6 3 -8 10 -5 15 3 5 1 11 -5 15 -5 3 -10 0
-10 -8 0 -7 -7 -14 -15 -14 -11 0 -12 4 -5 11 5 5 10 15 10 21 0 5 -5 3 -10
-5 -9 -13 -11 -13 -21 0 -9 13 -10 12 -5 -2 4 -14 1 -16 -17 -9 -12 4 -29 7
-37 6 -8 0 -19 4 -23 10 -5 6 -7 1 -4 -11z m47 -10 c0 -8 -19 -13 -24 -6 -3 5
1 9 9 9 8 0 15 -2 15 -3z m190 -48 c0 -2 -8 -10 -17 -17 -16 -13 -17 -12 -4 4
13 16 21 21 21 13z m-23 -82 c-3 -3 -12 -4 -19 -1 -8 3 -5 6 6 6 11 1 17 -2
13 -5z m-317 -169 c0 -2 -6 -5 -13 -8 -8 -3 -14 1 -14 8 0 7 6 11 14 8 7 -3
13 -6 13 -8z m175 -95 c3 -5 1 -10 -4 -10 -6 0 -11 5 -11 10 0 6 2 10 4 10 3
0 8 -4 11 -10z m240 -210 c3 -6 -1 -7 -9 -4 -18 7 -21 14 -7 14 6 0 13 -4 16
-10z m-167 -125 c-6 -14 -13 -23 -15 -21 -5 5 15 46 22 46 3 0 -1 -11 -7 -25z
m-408 -195 c0 -5 -4 -10 -9 -10 -6 0 -13 5 -16 10 -3 6 1 10 9 10 9 0 16 -4
16 -10z m320 -14 c0 -2 -7 -6 -15 -10 -8 -3 -15 -1 -15 4 0 6 7 10 15 10 8 0
15 -2 15 -4z"/>
<path d="M140 1583 c0 -7 -10 -10 -25 -7 -14 2 -25 0 -25 -5 0 -5 8 -8 18 -6
9 1 22 0 27 -4 6 -3 17 -6 25 -6 8 0 21 -4 28 -8 17 -11 15 1 -3 19 -12 12
-15 12 -15 2 -1 -8 -6 -6 -15 6 -8 11 -15 15 -15 9z"/>
<path d="M522 1568 c2 -15 -2 -22 -10 -20 -8 1 -11 -2 -7 -8 11 -18 34 8 28
30 -7 27 -15 25 -11 -2z"/>
<path d="M581 1574 c0 -11 3 -14 6 -6 3 7 2 16 -1 19 -3 4 -6 -2 -5 -13z"/>
<path d="M2060 1581 c0 -6 4 -13 10 -16 6 -3 7 1 4 9 -7 18 -14 21 -14 7z"/>
<path d="M2405 1550 c-3 -6 1 -7 9 -4 18 7 21 14 7 14 -6 0 -13 -4 -16 -10z"/>
<path d="M695 1451 c-3 -5 -2 -12 3 -15 5 -3 9 1 9 9 0 17 -3 19 -12 6z"/>
<path d="M2079 1403 c-13 -16 -12 -17 4 -4 9 7 17 15 17 17 0 8 -8 3 -21 -13z"/>
<path d="M256 1397 c3 -10 9 -15 12 -12 3 3 0 11 -7 18 -10 9 -11 8 -5 -6z"/>
<path d="M545 1370 c-3 -6 1 -7 9 -4 18 7 21 14 7 14 -6 0 -13 -4 -16 -10z"/>
<path d="M117 1309 c7 -7 15 -10 18 -7 3 3 -2 9 -12 12 -14 6 -15 5 -6 -5z"/>
<path d="M520 1286 c0 -2 7 -7 16 -10 8 -3 12 -2 9 4 -6 10 -25 14 -25 6z"/>
<path d="M1126 1272 c-3 -5 1 -9 9 -9 8 0 12 4 9 9 -3 4 -7 8 -9 8 -2 0 -6 -4
-9 -8z"/>
<path d="M2395 1090 c3 -5 8 -10 11 -10 2 0 4 5 4 10 0 6 -5 10 -11 10 -5 0
-7 -4 -4 -10z"/>
<path d="M680 1040 c-9 -6 -10 -10 -3 -10 6 0 15 5 18 10 8 12 4 12 -15 0z"/>
<path d="M390 1032 c0 -5 7 -15 15 -22 8 -7 15 -9 15 -6 0 4 -7 14 -15 22 -8
9 -15 11 -15 6z"/>
<path d="M845 1020 c-3 -6 1 -7 9 -4 18 7 21 14 7 14 -6 0 -13 -4 -16 -10z"/>
<path d="M690 1010 c0 -5 5 -10 11 -10 5 0 7 5 4 10 -3 6 -8 10 -11 10 -2 0
-4 -4 -4 -10z"/>
<path d="M2220 990 c8 -5 20 -10 25 -10 6 0 3 5 -5 10 -8 5 -19 10 -25 10 -5
0 -3 -5 5 -10z"/>
<path d="M555 970 c-3 -5 -1 -10 4 -10 6 0 11 5 11 10 0 6 -2 10 -4 10 -3 0
-8 -4 -11 -10z"/>
<path d="M523 897 c0 -8 6 -14 14 -14 9 0 10 4 2 14 -6 7 -12 13 -14 13 -1 0
-2 -6 -2 -13z"/>
<path d="M500 835 c-7 -9 -8 -15 -2 -15 5 0 12 7 16 15 3 8 4 15 2 15 -2 0 -9
-7 -16 -15z"/>
<path d="M2250 785 c-7 -8 -17 -12 -23 -8 -6 3 -7 1 -3 -5 5 -9 12 -8 26 1 11
6 20 15 20 19 0 12 -6 10 -20 -7z"/>
<path d="M2493 788 c-17 -22 -26 -45 -10 -26 10 13 16 15 25 6 9 -9 12 -9 12
0 0 7 -5 12 -11 12 -5 0 -7 5 -4 10 9 14 -1 12 -12 -2z"/>
<path d="M780 760 c-9 -6 -10 -10 -3 -10 6 0 15 5 18 10 8 12 4 12 -15 0z"/>
<path d="M465 730 c-3 -6 1 -7 9 -4 18 7 21 14 7 14 -6 0 -13 -4 -16 -10z"/>
<path d="M1395 730 c-3 -6 1 -7 9 -4 18 7 21 14 7 14 -6 0 -13 -4 -16 -10z"/>
<path d="M2432 717 c-7 -8 -8 -18 -1 -27 8 -12 9 -11 7 5 -2 12 2 19 10 17 8
-1 11 2 7 8 -8 13 -10 13 -23 -3z"/>
<path d="M1856 692 c-3 -5 1 -9 9 -9 8 0 12 4 9 9 -3 4 -7 8 -9 8 -2 0 -6 -4
-9 -8z"/>
<path d="M2377 683 c-4 -3 -7 -11 -7 -17 0 -6 5 -5 12 2 6 6 9 14 7 17 -3 3
-9 2 -12 -2z"/>
<path d="M1410 614 c0 -13 18 -39 24 -34 2 3 -2 14 -10 24 -8 11 -14 16 -14
10z"/>
<path d="M1520 590 c-13 -8 -12 -10 3 -10 9 0 17 5 17 10 0 12 -1 12 -20 0z"/>
<path d="M1490 581 c0 -6 4 -13 10 -16 6 -3 7 1 4 9 -7 18 -14 21 -14 7z"/>
</g>
</svg>
