<?xml version="1.0" standalone="no"?>
<!DOCTYPE svg PUBLIC "-//W3C//DTD SVG 20010904//EN"
 "http://www.w3.org/TR/2001/REC-SVG-20010904/DTD/svg10.dtd">
<svg version="1.0" xmlns="http://www.w3.org/2000/svg"
 width="1293.000000pt" height="507.000000pt" viewBox="0 0 1293.000000 507.000000"
 preserveAspectRatio="xMidYMid meet">

<g transform="translate(0.000000,507.000000) scale(0.100000,-0.100000)"
fill="#000000" stroke="none">
<path d="M6392 5033 c20 -21 42 -51 47 -66 7 -17 11 -113 11 -233 l0 -204 160
0 160 0 0 198 c0 108 5 214 10 234 7 23 26 50 53 72 l42 36 -260 0 -259 0 36
-37z" fill="#888888"/>
<path d="M5675 4518 c-3 -7 -18 -73 -33 -146 -33 -151 -39 -142 68 -95 l65 28
333 3 332 4 0 109 0 109 -380 0 c-295 0 -382 -3 -385 -12z" fill="#888888"/>
<path d="M6780 4420 l0 -110 103 -2 c56 -1 194 -3 307 -3 216 -1 272 -9 368
-51 28 -13 52 -22 52 -21 0 1 -13 65 -30 142 -16 77 -30 143 -30 147 0 5 -173
8 -385 8 l-385 0 0 -110z" fill="#888888"/>
<path d="M4774 4476 c-97 -18 -137 -32 -217 -74 -88 -46 -152 -110 -191 -192
-29 -60 -31 -73 -31 -170 0 -97 2 -110 32 -173 65 -137 171 -220 490 -385 114
-59 228 -122 253 -139 64 -44 126 -112 145 -155 30 -73 13 -175 -42 -246 -131
-172 -547 -189 -804 -33 l-64 39 -3 -136 c-2 -99 1 -138 10 -143 24 -15 194
-41 321 -48 447 -28 749 80 859 306 31 65 33 73 33 188 0 117 -1 122 -34 190
-68 138 -189 232 -520 405 -332 172 -405 236 -404 353 1 98 71 182 190 228 81
31 252 38 343 14 73 -19 163 -61 215 -101 l35 -26 0 136 c0 153 11 135 -95
157 -84 17 -439 21 -521 5z" fill="#888888"/>
<path d="M64 4420 c31 -33 65 -79 76 -102 10 -24 168 -434 350 -913 183 -478
335 -873 339 -877 3 -4 91 212 195 480 339 874 307 798 321 771 7 -13 117
-298 245 -634 128 -335 236 -613 240 -618 3 -4 161 394 350 885 188 491 352
911 362 932 11 21 40 61 65 87 l46 49 -177 0 c-97 0 -176 -1 -176 -2 0 -2 6
-23 14 -48 12 -42 12 -52 -8 -112 -44 -138 -441 -1166 -448 -1160 -15 16 -420
1083 -451 1189 -15 48 -14 54 4 89 10 21 19 40 19 41 0 2 -93 3 -206 3 l-206
0 50 -55 c55 -60 86 -119 132 -249 l30 -85 -181 -468 c-100 -257 -183 -470
-185 -472 -4 -5 -11 14 -187 466 -174 446 -264 693 -273 750 -4 31 -1 45 20
76 l25 37 -221 0 -221 0 57 -60z" fill="#888888"/>
<path d="M2790 4475 c0 -3 17 -24 38 -46 l37 -42 3 -791 c2 -435 0 -811 -3
-835 -5 -31 -17 -55 -47 -87 l-41 -44 601 0 c353 0 603 4 606 9 8 12 86 265
83 267 -1 1 -42 -12 -92 -29 l-90 -32 -375 0 -375 0 -3 351 -2 351 136 6 c312
15 457 6 536 -34 20 -10 40 -19 43 -19 3 0 5 54 5 120 l0 120 -357 2 -358 3
-3 273 -2 273 307 -3 308 -3 53 -28 52 -27 0 125 0 125 -530 0 c-291 0 -530
-2 -530 -5z" fill="#888888"/>
<path d="M7827 4448 c17 -18 36 -43 42 -55 8 -15 11 -256 11 -843 l0 -820 -40
-44 c-22 -24 -40 -46 -40 -50 0 -3 270 -6 599 -6 l600 0 35 113 c52 168 53
172 30 162 -10 -5 -50 -20 -89 -34 -70 -26 -71 -26 -447 -29 l-378 -3 0 354 0
354 128 6 c309 16 458 6 544 -36 l48 -24 0 124 0 123 -360 0 -360 0 0 276 0
275 303 -3 c326 -3 300 0 410 -56 4 -2 7 53 7 122 l0 126 -537 0 -537 0 31
-32z" fill="#888888"/>
<path d="M9355 4434 l40 -48 3 -801 c2 -440 0 -815 -3 -833 -4 -20 -24 -53
-47 -78 l-41 -44 232 0 c127 0 231 1 231 3 0 2 -20 18 -44 35 -34 25 -46 41
-55 76 -12 51 -16 816 -3 816 4 0 183 -209 397 -465 l390 -464 215 0 215 0
-54 32 c-87 52 -124 87 -279 264 -458 523 -563 645 -560 647 2 2 30 8 63 15
147 28 288 129 346 247 55 111 56 276 3 395 -35 78 -121 159 -201 189 -126 47
-170 52 -538 57 l-349 5 39 -48z m586 -148 c37 -8 85 -24 106 -35 123 -62 168
-234 99 -375 -29 -58 -77 -98 -147 -123 -65 -22 -200 -36 -273 -28 l-66 7 0
278 0 279 33 4 c74 9 186 6 248 -7z" fill="#888888"/>
<path d="M11010 4435 c63 -92 60 -40 60 -909 l0 -795 -42 -48 -41 -48 101 -3
c56 -1 147 -1 203 0 l100 3 -50 38 -51 37 0 702 0 702 34 -33 c18 -18 364
-374 767 -791 l734 -758 5 932 c3 512 6 933 8 935 1 2 21 21 44 42 l43 39
-198 0 c-108 0 -197 -3 -197 -6 0 -4 13 -21 29 -40 19 -21 34 -53 41 -88 11
-55 21 -1209 10 -1204 -3 2 -297 303 -654 671 l-648 667 -164 0 -165 0 31 -45z" fill="#888888"/>
<path d="M6448 3315 l-3 -984 -45 -46 -44 -45 257 0 c141 0 257 2 257 4 0 2
-15 14 -34 25 -69 43 -66 -7 -66 1066 l0 965 -160 0 -160 0 -2 -985z" fill="#888888"/>
<path d="M2959 1642 c-45 -23 -59 -37 -83 -85 -26 -50 -30 -69 -29 -136 0 -98
29 -162 92 -206 40 -28 48 -30 140 -30 89 0 101 2 138 27 113 74 132 289 35
392 -68 72 -197 89 -293 38z m191 -71 c88 -61 78 -261 -14 -305 -43 -20 -69
-20 -112 0 -85 41 -102 230 -26 297 42 38 104 41 152 8z" fill="#888888"/>
<path d="M4107 1660 c-44 -13 -95 -57 -119 -103 -30 -56 -32 -204 -4 -257 46
-88 103 -120 211 -120 89 0 137 20 183 75 37 46 52 96 52 176 0 106 -50 189
-132 224 -40 16 -144 19 -191 5z m161 -87 c38 -24 65 -96 60 -162 -5 -71 -24
-109 -68 -139 -27 -18 -44 -23 -74 -19 -59 8 -88 35 -110 102 -33 99 -1 197
74 229 38 17 82 13 118 -11z" fill="#888888"/>
<path d="M4769 1656 c-59 -21 -96 -53 -123 -108 -21 -43 -26 -66 -26 -130 0
-90 14 -130 60 -175 54 -52 103 -66 222 -61 57 2 109 7 116 11 8 6 12 45 12
138 l0 129 -95 0 -95 0 0 -40 0 -40 50 0 50 0 0 -60 c0 -56 -2 -60 -26 -66
-63 -16 -129 14 -172 77 -20 29 -23 44 -20 100 5 89 36 132 111 154 51 15 73
14 168 -7 10 -2 14 7 14 37 0 33 -4 40 -25 46 -43 12 -183 9 -221 -5z" fill="#888888"/>
<path d="M5696 1655 c-102 -36 -156 -119 -156 -241 0 -150 92 -234 257 -234
106 0 113 3 113 52 0 34 -3 39 -17 33 -48 -18 -111 -17 -156 3 -106 47 -129
194 -43 280 43 44 96 56 165 38 l51 -13 0 42 c0 40 -2 43 -31 49 -52 10 -142
6 -183 -9z" fill="#888888"/>
<path d="M7551 1652 c-52 -26 -75 -63 -75 -122 0 -68 23 -96 120 -145 72 -36
79 -43 82 -72 3 -27 -2 -34 -27 -47 -37 -20 -67 -20 -119 -2 l-40 14 -6 -40
c-4 -22 -4 -43 -1 -47 4 -3 50 -7 103 -9 83 -2 102 0 129 17 47 29 67 66 67
121 0 70 -22 96 -120 141 -76 35 -84 42 -84 66 0 36 9 49 43 62 19 8 42 8 74
1 25 -6 47 -9 48 -8 1 2 5 19 9 39 6 35 5 37 -25 43 -60 12 -143 6 -178 -12z" fill="#888888"/>
<path d="M1200 1625 l0 -35 70 0 70 0 0 -205 0 -205 45 0 45 0 2 203 3 202 68
3 67 3 0 34 0 35 -185 0 -185 0 0 -35z" fill="#888888"/>
<path d="M1750 1420 l0 -240 50 0 50 0 0 105 0 105 95 0 95 0 0 -105 0 -105
50 0 50 0 0 240 0 240 -50 0 -50 0 0 -95 0 -95 -95 0 -95 0 0 95 0 95 -50 0
-50 0 0 -240z" fill="#888888"/>
<path d="M2370 1420 l0 -240 140 0 140 0 0 40 0 40 -95 0 -95 0 0 65 0 65 85
0 85 0 0 40 0 40 -85 0 -86 0 3 58 3 57 93 3 92 3 0 34 0 35 -140 0 -140 0 0
-240z" fill="#888888"/>
<path d="M3520 1420 l0 -240 140 0 140 0 0 40 0 40 -90 0 -90 0 0 200 0 200
-50 0 -50 0 0 -240z" fill="#888888"/>
<path d="M5250 1420 l0 -240 45 0 45 0 0 240 0 240 -45 0 -45 0 0 -240z" fill="#888888"/>
<path d="M6230 1638 c-6 -13 -48 -120 -94 -238 l-84 -215 40 -3 c57 -5 63 0
84 57 l18 51 97 0 98 0 19 -52 20 -53 56 -3 56 -3 -22 58 c-13 32 -54 139 -93
238 l-71 180 -57 3 c-51 3 -58 1 -67 -20z m130 -265 c0 -2 -29 -3 -65 -3 -36
0 -65 4 -65 8 0 8 40 128 56 166 5 14 15 -4 40 -75 18 -52 33 -95 34 -96z" fill="#888888"/>
<path d="M6720 1420 l0 -240 140 0 140 0 0 40 0 40 -95 0 -95 0 0 200 0 200
-45 0 -45 0 0 -240z" fill="#888888"/>
<path d="M7990 1420 l0 -240 145 0 145 0 0 40 0 40 -95 0 -95 0 0 65 0 65 85
0 85 0 0 40 0 40 -85 0 -85 0 0 60 0 60 90 0 90 0 0 35 0 35 -140 0 -140 0 0
-240z" fill="#888888"/>
<path d="M8490 1420 l0 -240 45 0 45 0 0 192 c0 110 4 188 9 183 5 -6 35 -92
66 -192 l58 -183 48 0 48 0 63 193 63 192 3 -192 2 -193 45 0 45 0 0 240 0
240 -78 0 -78 0 -55 -174 c-30 -96 -57 -172 -60 -170 -4 2 -10 16 -14 31 -3
16 -26 92 -51 171 l-45 142 -80 0 -79 0 0 -240z" fill="#888888"/>
<path d="M9250 1420 l0 -240 50 0 50 0 0 240 0 240 -50 0 -50 0 0 -240z" fill="#888888"/>
<path d="M9570 1420 l0 -240 45 0 45 0 0 178 1 177 91 -177 91 -178 58 0 59 0
0 240 0 240 -45 0 -45 0 -2 -172 -3 -173 -89 173 -89 172 -59 0 -58 0 0 -240z" fill="#888888"/>
<path d="M10309 1633 c-6 -16 -46 -120 -90 -232 -43 -112 -79 -207 -79 -212 0
-5 22 -9 49 -9 l48 0 19 53 19 52 100 0 100 0 19 -52 19 -53 54 0 c48 0 54 2
49 18 -4 9 -46 117 -94 239 l-87 223 -58 0 c-54 0 -58 -2 -68 -27z m101 -165
c16 -48 30 -89 30 -92 0 -3 -30 -6 -66 -6 -49 0 -65 3 -62 13 3 6 17 49 33 94
16 46 30 82 31 80 2 -1 17 -42 34 -89z" fill="#888888"/>
<path d="M10790 1420 l0 -240 50 0 50 0 0 100 0 100 34 0 c42 0 46 -5 86 -112
l33 -88 54 0 c52 0 54 1 47 23 -16 52 -85 202 -94 205 -15 5 -12 22 4 22 8 0
26 14 40 31 20 23 26 42 26 78 0 95 -46 121 -215 121 l-115 0 0 -240z m188
159 c34 -12 47 -37 38 -75 -7 -28 -41 -44 -92 -44 l-34 0 0 65 c0 65 0 65 29
65 15 0 42 -5 59 -11z" fill="#888888"/>
<path d="M11273 1653 c2 -5 40 -69 85 -144 l82 -135 0 -97 0 -97 50 0 50 0 0
98 c0 92 2 100 33 152 18 30 57 94 85 143 l52 87 -53 0 -53 0 -54 -96 c-62
-109 -54 -110 -123 18 l-42 78 -58 0 c-32 0 -56 -3 -54 -7z" fill="#888888"/>
<path d="M3863 471 c-112 -29 -173 -112 -173 -235 1 -138 62 -208 198 -231 24
-4 68 -4 98 0 l54 6 0 39 0 38 -42 -10 c-56 -12 -120 -2 -154 24 -33 27 -63
92 -64 138 0 45 37 118 73 144 30 22 107 28 160 12 26 -8 27 -7 27 27 0 20 -4
38 -10 42 -16 10 -134 15 -167 6z" fill="#37efff"/>
<path d="M4331 466 c-93 -31 -141 -107 -141 -226 0 -128 56 -206 163 -230 192
-43 332 114 277 311 -34 121 -169 187 -299 145z m158 -84 c16 -11 33 -40 44
-74 48 -146 -59 -283 -172 -222 -53 29 -76 76 -76 154 1 76 21 121 68 151 38
24 97 20 136 -9z" fill="#37efff"/>
<path d="M4941 466 c-53 -18 -97 -58 -122 -111 -25 -54 -25 -175 0 -230 52
-115 208 -159 326 -92 143 81 141 336 -3 415 -53 30 -141 37 -201 18z m158
-84 c16 -11 33 -40 44 -74 48 -146 -59 -283 -172 -222 -53 29 -76 76 -76 154
1 76 21 121 68 151 38 24 97 20 136 -9z" fill="#37efff"/>
<path d="M5430 240 l0 -230 45 0 44 0 3 108 3 107 84 -107 84 -108 60 0 c56 0
59 1 45 18 -109 129 -178 223 -172 234 4 7 39 49 78 93 113 128 107 115 44
115 l-56 0 -79 -94 c-43 -52 -81 -95 -85 -95 -5 -1 -8 42 -8 94 l0 95 -45 0
-45 0 0 -230z" fill="#37efff"/>
<path d="M6250 240 l0 -230 135 0 135 0 0 35 0 35 -90 0 -90 0 0 195 0 195
-45 0 -45 0 0 -230z" fill="#37efff"/>
<path d="M6670 240 l0 -230 45 0 45 0 0 230 0 230 -45 0 -45 0 0 -230z" fill="#37efff"/>
<path d="M6950 240 l0 -230 105 0 c151 0 201 24 219 107 10 44 -15 97 -53 114
-36 16 -39 25 -11 34 45 14 65 109 34 154 -27 38 -74 51 -189 51 l-105 0 0
-230z m198 144 c45 -31 21 -88 -43 -100 -56 -10 -65 -2 -65 61 l0 55 43 0 c23
0 53 -7 65 -16z m-15 -175 c26 -7 41 -18 47 -35 14 -36 13 -42 -15 -69 -19
-20 -34 -25 -75 -25 l-50 0 0 63 c0 35 3 67 7 70 9 10 42 8 86 -4z" fill="#37efff"/>
<path d="M7450 240 l0 -230 45 0 45 0 0 95 0 95 28 0 c38 0 54 -20 88 -112
l29 -78 52 0 52 0 -40 98 c-22 53 -49 104 -59 113 -19 16 -19 17 11 29 54 23
75 100 44 159 -22 44 -78 61 -195 61 l-100 0 0 -230z m195 135 c30 -29 31 -45
7 -75 -12 -15 -33 -24 -65 -27 l-47 -6 0 67 0 66 40 0 c30 0 47 -7 65 -25z" fill="#37efff"/>
<path d="M7997 247 c-48 -123 -87 -227 -87 -231 0 -4 21 -6 46 -4 46 3 47 3
66 56 l19 52 94 0 93 0 18 -51 c21 -58 26 -61 82 -57 l40 3 -88 225 -88 225
-54 3 -54 3 -87 -224z m172 40 c17 -49 31 -90 31 -93 0 -2 -30 -4 -66 -4 -49
0 -65 3 -62 13 3 6 17 49 33 95 15 46 28 82 30 80 2 -2 17 -43 34 -91z" fill="#37efff"/>
<path d="M8520 240 l0 -230 45 0 45 0 0 95 0 95 28 0 c41 0 49 -10 86 -101
l34 -84 51 -3 51 -3 -21 53 c-36 94 -59 142 -76 160 -9 10 -11 18 -6 18 6 0
25 13 42 29 27 25 31 36 31 79 0 95 -47 122 -212 122 l-98 0 0 -230z m207 134
c34 -47 1 -93 -72 -101 l-45 -6 0 68 0 68 52 -5 c34 -4 56 -12 65 -24z" fill="#37efff"/>
<path d="M8960 465 c0 -3 36 -64 80 -136 l80 -130 0 -95 0 -94 45 0 45 0 0 88
0 87 84 143 85 142 -49 0 -48 0 -53 -94 c-29 -52 -57 -92 -61 -90 -4 3 -29 45
-55 94 l-48 90 -52 0 c-29 0 -53 -2 -53 -5z" fill="#37efff"/>
</g>
</svg>
